<?xml version="1.0"?>
<svg xmlns="http://www.w3.org/2000/svg" xmlns:xlink="http://www.w3.org/1999/xlink" xmlns:svgjs="http://svgjs.com/svgjs" version="1.1" width="512" height="512" x="0" y="0" viewBox="0 0 64 64" style="enable-background:new 0 0 512 512" xml:space="preserve" class=""><g><g xmlns="http://www.w3.org/2000/svg" id="Radar"><path d="M47.56,16.44,42.6,21.4l-4.94,4.94-2.83,2.83a4,4,0,1,0,0,5.66l2.83,2.83L42.6,42.6l4.96,4.96,4.95,4.95a29.019,29.019,0,0,0,0-41.02Z" style="" fill="#00c0a7" data-original="#9bc9ff" class=""/><path d="M10.67,26.58c.21.27.33.42.33.42a58.521,58.521,0,0,0,6.21-9.79,22.247,22.247,0,0,0,.99-2.35A11.584,11.584,0,0,0,19,11a7.879,7.879,0,0,0-1.24-4.27A8,8,0,0,0,3,11c0,2.44,1.32,5.54,2.9,8.36A61.818,61.818,0,0,0,10.67,26.58ZM11,7a4,4,0,1,1-4,4A4,4,0,0,1,11,7Z" style="" fill="#00c0a7" data-original="#9bc9ff" class=""/><path d="M32,2A30,30,0,0,0,18.065,5.443,8.99,8.99,0,0,0,2,11c0,2.5,1.256,5.577,2.783,8.405A29.606,29.606,0,0,0,2,32,30,30,0,1,0,32,2ZM9.025,33a22.913,22.913,0,0,0,6.029,14.532L11.52,51.066A27.9,27.9,0,0,1,4.025,33ZM11.4,27.909a.994.994,0,0,0,.381-.284A60.843,60.843,0,0,0,17.49,18.9l2.528,2.528A15.915,15.915,0,0,0,16.051,31h-5.02A20.992,20.992,0,0,1,11.4,27.909ZM35,32a3,3,0,1,1-3-3A3,3,0,0,1,35,32Zm-5.753-4.167L27.816,26.4A6.947,6.947,0,0,1,31,25.08V27.1A4.961,4.961,0,0,0,29.247,27.833Zm0,8.334A4.961,4.961,0,0,0,31,36.9V38.92A6.947,6.947,0,0,1,27.816,37.6Zm-1.414-6.92A4.961,4.961,0,0,0,27.1,31H25.08A6.947,6.947,0,0,1,26.4,27.816ZM27.1,33a4.961,4.961,0,0,0,.732,1.753L26.4,36.184A6.947,6.947,0,0,1,25.08,33Zm-.712,6.025A8.956,8.956,0,0,0,31,40.941v5.008a13.919,13.919,0,0,1-8.154-3.381ZM31,23.059a8.956,8.956,0,0,0-4.611,1.916l-3.543-3.543A13.919,13.919,0,0,1,31,18.051Zm-6.025,3.33A8.956,8.956,0,0,0,23.059,31H18.051a13.919,13.919,0,0,1,3.381-8.154ZM23.059,33a8.956,8.956,0,0,0,1.916,4.611l-3.543,3.543A13.919,13.919,0,0,1,18.051,33ZM21.432,43.982A15.915,15.915,0,0,0,31,47.949v5a20.886,20.886,0,0,1-13.1-5.433ZM33,47.951a15.8,15.8,0,0,0,9.567-3.97l3.545,3.545A20.807,20.807,0,0,1,33,52.951Zm0-2V40.94a8.948,8.948,0,0,0,4.617-1.909l3.536,3.536A13.818,13.818,0,0,1,33,45.951Zm0-7.03V36.9a4.961,4.961,0,0,0,1.753-.732L36.188,37.6A6.959,6.959,0,0,1,33,38.921Zm1.753-11.088A4.961,4.961,0,0,0,33,27.1V25.079A6.959,6.959,0,0,1,36.188,26.4Zm2.864-2.864A8.948,8.948,0,0,0,33,23.06V18.049a13.818,13.818,0,0,1,8.153,3.384Zm4.95-4.95A15.8,15.8,0,0,0,33,16.049v-5a20.807,20.807,0,0,1,13.112,5.425Zm4.959-4.959A22.784,22.784,0,0,0,33,9.049V4.025A27.9,27.9,0,0,1,51.066,11.52ZM31,16.051a15.915,15.915,0,0,0-9.568,3.967l-3.024-3.024q.334-.751.614-1.5A21.025,21.025,0,0,1,31,11.043ZM16.051,33a15.915,15.915,0,0,0,3.967,9.568L16.484,46.1A20.886,20.886,0,0,1,11.051,33Zm.417,15.946A22.913,22.913,0,0,0,31,54.975v5a27.9,27.9,0,0,1-18.066-7.5ZM33,54.951A22.784,22.784,0,0,0,47.526,48.94l3.54,3.54A27.9,27.9,0,0,1,33,59.975Zm3.167-20.2a4.966,4.966,0,0,0,0-5.506L52.48,12.934a27.93,27.93,0,0,1,0,38.132ZM31,4.032V9.043a23.059,23.059,0,0,0-11.141,3.441A9.36,9.36,0,0,0,20,11a8.94,8.94,0,0,0-.879-3.854A27.973,27.973,0,0,1,31,4.032ZM11,4a7.008,7.008,0,0,1,7,7c0,4.507-5.027,11.7-7,14.353C9.026,22.7,4,15.511,4,11A7.008,7.008,0,0,1,11,4ZM9.594,26.815A22.956,22.956,0,0,0,9.031,31h-5A27.581,27.581,0,0,1,6.02,21.567C7.416,23.863,8.812,25.782,9.594,26.815Z" style="" fill="#273550" data-original="#57a4ff" class=""/><path d="M16,11a5,5,0,1,0-5,5A5.006,5.006,0,0,0,16,11ZM8,11a3,3,0,1,1,3,3A3,3,0,0,1,8,11Z" style="" fill="#273550" data-original="#57a4ff" class=""/></g></g></svg>
