<?xml version="1.0"?>
<svg xmlns="http://www.w3.org/2000/svg" xmlns:xlink="http://www.w3.org/1999/xlink" xmlns:svgjs="http://svgjs.com/svgjs" version="1.1" width="512" height="512" x="0" y="0" viewBox="0 0 512 512" style="enable-background:new 0 0 512 512" xml:space="preserve" class=""><g><g xmlns="http://www.w3.org/2000/svg" id="Antivirus"><g fill="#57a4ff"><path d="m272 120h-16v224h16a64 64 0 0 0 64-64v-96a64 64 0 0 0 -64-64zm-16-104-216.03 63.2v239.56c0 31.16 14.62 59.95 41.6 75.53l174.43 102.71 172.43-102.71a87.216 87.216 0 0 0 43.6-75.53v-239.56zm184.03 302.76a55.353 55.353 0 0 1 -27.6 47.82l-156.43 93.18-.09.05-158.34-93.23c-16.03-9.26-25.6-27.13-25.6-47.82v-215.58l184.03-53.84 184.03 53.84zm-200.03-198.76a64 64 0 0 0 -64 64v16h80v144h16a64 64 0 0 0 64-64v-96a64 64 0 0 0 -64-64z" fill="#00c0a7" data-original="#57a4ff" style="" class=""/><path d="m336 184v96a64 64 0 0 1 -64 64h-16v-224h16a64 64 0 0 1 64 64z" fill="#00c0a7" data-original="#57a4ff" style="" class=""/><path d="m256 120v80h-80v-16a64 64 0 0 1 64-64z" fill="#00c0a7" data-original="#57a4ff" style="" class=""/><path d="m336 200v80a64 64 0 0 1 -64 64h-16v-144z" fill="#00c0a7" data-original="#57a4ff" style="" class=""/><path d="m336 184v16h-160v-16a64 64 0 0 1 64-64h32a64 64 0 0 1 64 64z" fill="#00c0a7" data-original="#57a4ff" style="" class=""/></g><path d="m474.28 71.52-216.034-63.198a8 8 0 0 0 -4.492 0l-216.034 63.198a8 8 0 0 0 -5.754 7.68v239.565c0 35.144 17.049 65.969 45.547 82.423l174.427 102.706a8 8 0 0 0 8.154-.021l172.386-102.682a95.481 95.481 0 0 0 47.554-82.426v-239.565a8 8 0 0 0 -5.754-7.68zm-10.246 247.245a79.436 79.436 0 0 1 -39.606 68.6l-.094.055-168.357 100.28-170.405-100.334c-23.548-13.595-37.606-39.241-37.606-68.6v-233.574l208.034-60.857 208.034 60.857z" fill="#273550" data-original="#004fac" style="" class=""/><path d="m253.754 41.663-184.034 53.837a8 8 0 0 0 -5.754 7.678v215.587c0 23.563 11.055 44.018 29.575 54.726l158.306 93.209a8 8 0 0 0 8.153-.02l156.478-93.2a63.389 63.389 0 0 0 31.556-54.715v-215.587a8 8 0 0 0 -5.754-7.678l-184.034-53.837a7.982 7.982 0 0 0 -4.492 0zm178.28 67.51v209.592a47.346 47.346 0 0 1 -23.606 40.888l-.094.055-152.451 90.8-154.251-90.82-.06-.036c-13.529-7.81-21.606-23.095-21.606-40.887v-209.592l176.034-51.497z" fill="#273550" data-original="#004fac" style="" class=""/><path d="m179.834 144.519-30.177-30.176a8 8 0 0 0 -11.314 11.314l32 32a7.972 7.972 0 0 0 2.08 1.494 71.649 71.649 0 0 0 -4.423 24.849v40h-40a8 8 0 0 0 0 16h40v40a71.649 71.649 0 0 0 4.423 24.849 7.972 7.972 0 0 0 -2.08 1.494l-32 32a8 8 0 0 0 11.314 11.314l30.177-30.176a71.982 71.982 0 0 0 60.166 32.519h32a71.982 71.982 0 0 0 60.166-32.519l30.177 30.176a8 8 0 0 0 11.314-11.314l-32-32a7.972 7.972 0 0 0 -2.08-1.494 71.649 71.649 0 0 0 4.423-24.849v-40h40a8 8 0 0 0 0-16h-40v-40a71.649 71.649 0 0 0 -4.423-24.849 7.972 7.972 0 0 0 2.08-1.494l32-32a8 8 0 0 0 -11.314-11.314l-30.177 30.176a71.982 71.982 0 0 0 -60.166-32.519h-32a71.982 71.982 0 0 0 -60.166 32.519zm60.166 191.481a56.063 56.063 0 0 1 -56-56v-72h64v128zm32 0h-8v-128h64v72a56.063 56.063 0 0 1 -56 56zm56-152v8h-144v-8a56.063 56.063 0 0 1 56-56h32a56.063 56.063 0 0 1 56 56z" fill="#273550" data-original="#004fac" style="" class=""/></g></g></svg>
