<?xml version="1.0"?>
<svg xmlns="http://www.w3.org/2000/svg" xmlns:xlink="http://www.w3.org/1999/xlink" xmlns:svgjs="http://svgjs.com/svgjs" version="1.1" width="512" height="512" x="0" y="0" viewBox="0 0 512 512" style="enable-background:new 0 0 512 512" xml:space="preserve" class=""><g><g xmlns="http://www.w3.org/2000/svg"><g fill="#57a4ff"><path d="m184 432h32v32h-32z" fill="#72f1dc" data-original="#57a4ff" style="" class=""/><path d="m184 16h32v32h-32z" fill="#72f1dc" data-original="#57a4ff" style="" class=""/><circle cx="80" cy="216" r="16" fill="#72f1dc" data-original="#57a4ff" style="" class=""/><circle cx="136" cy="216" r="16" fill="#72f1dc" data-original="#57a4ff" style="" class=""/><path d="m361.01 256.93-28.16 7.07a118.642 118.642 0 0 1 28.16-7.07z" fill="#72f1dc" data-original="#57a4ff" style="" class=""/><circle cx="80" cy="216" r="16" fill="#72f1dc" data-original="#57a4ff" style="" class=""/><circle cx="136" cy="216" r="16" fill="#72f1dc" data-original="#57a4ff" style="" class=""/><circle cx="80" cy="96" r="16" fill="#72f1dc" data-original="#57a4ff" style="" class=""/><circle cx="136" cy="96" r="16" fill="#72f1dc" data-original="#57a4ff" style="" class=""/><circle cx="80" cy="96" r="16" fill="#72f1dc" data-original="#57a4ff" style="" class=""/><circle cx="136" cy="96" r="16" fill="#72f1dc" data-original="#57a4ff" style="" class=""/><circle cx="80" cy="336" r="16" fill="#72f1dc" data-original="#57a4ff" style="" class=""/><circle cx="136" cy="336" r="16" fill="#72f1dc" data-original="#57a4ff" style="" class=""/><circle cx="80" cy="336" r="16" fill="#72f1dc" data-original="#57a4ff" style="" class=""/><circle cx="136" cy="336" r="16" fill="#72f1dc" data-original="#57a4ff" style="" class=""/><path d="m361.01 256.93-28.16 7.07a118.642 118.642 0 0 1 28.16-7.07z" fill="#72f1dc" data-original="#57a4ff" style="" class=""/><circle cx="376" cy="376" r="16" fill="#72f1dc" data-original="#57a4ff" style="" class=""/><path d="m352 440h48v24h-48z" fill="#72f1dc" data-original="#57a4ff" style="" class=""/><path d="m472 376a95.66 95.66 0 0 1 -28.12 67.88l-16.97-16.97a72 72 0 1 0 -101.82 0l-16.97 16.97a96 96 0 1 1 163.88-67.88z" fill="#72f1dc" data-original="#57a4ff" style="" class=""/><path d="m472 376a95.66 95.66 0 0 1 -28.12 67.88l-16.97-16.97a72 72 0 1 0 -101.82 0l-16.97 16.97a96 96 0 1 1 163.88-67.88z" fill="#72f1dc" data-original="#57a4ff" style="" class=""/><circle cx="376" cy="376" r="16" fill="#72f1dc" data-original="#57a4ff" style="" class=""/><path d="m352 440h48v24h-48z" fill="#72f1dc" data-original="#57a4ff" style="" class=""/></g><g fill="#004fac"><path d="m495.92 472h-35.36a127.937 127.937 0 0 0 -84.56-224c-.34 0-.68.01-1.01.01a32.321 32.321 0 0 0 1.01-8.01v-48a32.042 32.042 0 0 0 -32-32h-136v-8h136a32.036 32.036 0 0 0 32-32v-48a32.036 32.036 0 0 0 -32-32h-120v-24a8 8 0 0 0 -8-8h-32a8 8 0 0 0 -8 8v24h-120a32.036 32.036 0 0 0 -32 32v48a32.036 32.036 0 0 0 32 32h136v8h-136a32.042 32.042 0 0 0 -32 32v48a32.042 32.042 0 0 0 32 32h136v8h-136a32.042 32.042 0 0 0 -32 32v48a32.042 32.042 0 0 0 32 32h136v32h-8a8 8 0 0 0 -8 8v24h-40a8 8 0 0 0 -8 8v8h-112a8 8 0 0 0 0 16h112v8a8 8 0 0 0 8 8h128a8 8 0 0 0 8-8v-8h42.09a127.777 127.777 0 0 0 123.82 0h58.01a8 8 0 1 0 0-16zm-303.92-448h16v16h-16zm-136 112a16.021 16.021 0 0 1 -16-16v-48a16.021 16.021 0 0 1 16-16h288a16.021 16.021 0 0 1 16 16v48a16.021 16.021 0 0 1 -16 16zm0 120a16.021 16.021 0 0 1 -16-16v-48a16.021 16.021 0 0 1 16-16h288a16.021 16.021 0 0 1 16 16v48a15.959 15.959 0 0 1 -3.09 9.43 126.3 126.3 0 0 0 -25.45 6.57zm245.47 16a126.917 126.917 0 0 0 -10.03 8h-83.44v-8zm-245.47 104a16.021 16.021 0 0 1 -16-16v-48a16.021 16.021 0 0 1 16-16h220.16a127.356 127.356 0 0 0 -28.16 80zm136 64h16v16h-16zm64 48h-112v-16h112zm16-16v-8a8 8 0 0 0 -8-8h-40v-24a8 8 0 0 0 -8-8h-8v-32h41a127.846 127.846 0 0 0 42.44 80zm104 16a112 112 0 1 1 112-112 112.123 112.123 0 0 1 -112 112z" fill="#273550" data-original="#004fac" style="" class=""/><path d="m80 192a24 24 0 1 0 24 24 24.028 24.028 0 0 0 -24-24zm0 32a8 8 0 1 1 8-8 8.009 8.009 0 0 1 -8 8z" fill="#273550" data-original="#004fac" style="" class=""/><path d="m136 192a24 24 0 1 0 24 24 24.028 24.028 0 0 0 -24-24zm0 32a8 8 0 1 1 8-8 8.009 8.009 0 0 1 -8 8z" fill="#273550" data-original="#004fac" style="" class=""/><path d="m232 208h104a8 8 0 0 0 0-16h-104a8 8 0 0 0 0 16z" fill="#273550" data-original="#004fac" style="" class=""/><path d="m336 216h-96a8 8 0 0 0 0 16h96a8 8 0 0 0 0-16z" fill="#273550" data-original="#004fac" style="" class=""/><path d="m208 200a8 8 0 0 0 -8-8h-8a8 8 0 0 0 0 16h8a8 8 0 0 0 8-8z" fill="#273550" data-original="#004fac" style="" class=""/><path d="m80 72a24 24 0 1 0 24 24 24.027 24.027 0 0 0 -24-24zm0 32a8 8 0 1 1 8-8 8.009 8.009 0 0 1 -8 8z" fill="#273550" data-original="#004fac" style="" class=""/><path d="m136 72a24 24 0 1 0 24 24 24.027 24.027 0 0 0 -24-24zm0 32a8 8 0 1 1 8-8 8.009 8.009 0 0 1 -8 8z" fill="#273550" data-original="#004fac" style="" class=""/><path d="m232 96h104a8 8 0 0 0 0-16h-104a8 8 0 0 0 0 16z" fill="#273550" data-original="#004fac" style="" class=""/><path d="m336 104h-96a8 8 0 0 0 0 16h96a8 8 0 0 0 0-16z" fill="#273550" data-original="#004fac" style="" class=""/><path d="m208 88a8 8 0 0 0 -8-8h-8a8 8 0 0 0 0 16h8a8 8 0 0 0 8-8z" fill="#273550" data-original="#004fac" style="" class=""/><path d="m80 312a24 24 0 1 0 24 24 24.028 24.028 0 0 0 -24-24zm0 32a8 8 0 1 1 8-8 8.009 8.009 0 0 1 -8 8z" fill="#273550" data-original="#004fac" style="" class=""/><path d="m136 312a24 24 0 1 0 24 24 24.028 24.028 0 0 0 -24-24zm0 32a8 8 0 1 1 8-8 8.009 8.009 0 0 1 -8 8z" fill="#273550" data-original="#004fac" style="" class=""/><path d="m208 320a8 8 0 0 0 -8-8h-8a8 8 0 0 0 0 16h8a8 8 0 0 0 8-8z" fill="#273550" data-original="#004fac" style="" class=""/><path d="m376 272a104 104 0 0 0 -73.535 177.538 8 8 0 0 0 11.312 0l16.97-16.97a8 8 0 0 0 0-11.313 64 64 0 1 1 90.506 0 8 8 0 0 0 0 11.313l16.97 16.97a8 8 0 0 0 11.312 0 104 104 0 0 0 -73.535-177.538zm67.629 160.315-5.683-5.682a80 80 0 1 0 -123.892 0l-5.683 5.682a88 88 0 1 1 135.258 0z" fill="#273550" data-original="#004fac" style="" class=""/><path d="m376 320a8 8 0 0 0 -8 8v25.376a23.994 23.994 0 0 0 .12 45.289 8.043 8.043 0 0 0 -.12 1.335v8a8 8 0 0 0 16 0v-8a8.043 8.043 0 0 0 -.12-1.335 23.994 23.994 0 0 0 .12-45.289v-25.376a8 8 0 0 0 -8-8zm0 64a8 8 0 1 1 8-8 8.009 8.009 0 0 1 -8 8z" fill="#273550" data-original="#004fac" style="" class=""/><path d="m400 432h-48a8 8 0 0 0 -8 8v24a8 8 0 0 0 8 8h48a8 8 0 0 0 8-8v-24a8 8 0 0 0 -8-8zm-8 24h-32v-8h32z" fill="#273550" data-original="#004fac" style="" class=""/></g></g></g></svg>
